<?xml version="1.0" encoding="utf-8"?>
<!-- Generator: Adobe Illustrator 16.0.0, SVG Export Plug-In . SVG Version: 6.00 Build 0)  -->
<!DOCTYPE svg PUBLIC "-//W3C//DTD SVG 1.1//EN" "http://www.w3.org/Graphics/SVG/1.1/DTD/svg11.dtd">
<svg version="1.1" id="Layer_1" xmlns="http://www.w3.org/2000/svg" xmlns:xlink="http://www.w3.org/1999/xlink" x="0px" y="0px"
	 width="27px" height="32px" viewBox="0 0 27 32" enable-background="new 0 0 27 32" xml:space="preserve">
<filter  height="200%" width="200%" id="filter-1" x="-50%" y="-50%" filterUnits="objectBoundingBox">
	<feOffset  dx="0" dy="2" in="SourceAlpha" result="shadowOffsetOuter1"></feOffset>
	<feGaussianBlur  stdDeviation="2" in="shadowOffsetOuter1" result="shadowBlurOuter1"></feGaussianBlur>
	
		<feColorMatrix  type="matrix" values="0 0 0 0 0   0 0 0 0 0   0 0 0 0 0  0 0 0 0.05 0" in="shadowBlurOuter1" result="shadowMatrixOuter1">
		</feColorMatrix>
	<feMerge>
		<feMergeNode  in="shadowMatrixOuter1"></feMergeNode>
		<feMergeNode  in="SourceGraphic"></feMergeNode>
	</feMerge>
</filter>
<title>ic_home</title>
<desc>Created with Sketch.</desc>
<g id="OPt-2">
	<g id="prog2_pro3_Mobile-Portrait_opt2-Copy-2" transform="translate(-10.000000, -15.000000)">
		<g id="nav">
			<g id="Group-6" filter="url(#filter-1)">
				<g id="ic_home_2_" transform="translate(14.000000, 17.000000)">
					<g id="Group_2_" transform="translate(9.600000, 12.000000) scale(-1, 1) translate(-9.600000, -12.000000) ">
						<path id="Shape_6_" fill="#CC4F0F" d="M1.542,6.862l0.895,0.692l1.439,1.115C4.069,7.7,4.63,6.867,5.406,6.325L2.636,4.178
							l0.857-1.139c0.352-0.466,0.264-1.132-0.197-1.487L1.207,4.323c-0.31,0.41-0.417,0.912-0.343,1.385
							C0.932,6.15,1.163,6.568,1.542,6.862L1.542,6.862z"/>
						<path id="Shape_2_" fill="#CC4F0F" d="M10.327,16.551c-3.092-1.619-5.844-2.078-6.539-0.965
							c-0.57,0.914,0.4,2.646,2.301,4.422l-1.804,2.932H3.057C2.492,22.956,2.037,23.423,2.037,24h1.597h2.112l0.652-1.061
							l1.045-1.699l0.407-0.663c-0.145-0.239-0.229-0.521-0.229-0.82c0-0.871,0.697-1.577,1.557-1.577
							c0.047,0,0.093,0.006,0.141,0.01L10.327,16.551L10.327,16.551z"/>
						<path id="Shape_1_" fill="#CC4F0F" d="M18.973,6.453c-0.161-0.788-0.849-1.38-1.674-1.38c-0.235,0-0.46,0.049-0.664,0.136
							c-0.615,0.263-1.047,0.879-1.047,1.599v8.224c0,0.586-0.469,1.061-1.047,1.061c-0.421,0-0.783-0.252-0.949-0.614
							c-0.015-0.033-0.028-0.065-0.04-0.101l-0.972-2.442l1.886-6.454c0.001-0.004,0.003-0.009,0.004-0.013
							c0.023-0.072,0.043-0.145,0.063-0.217c0.689-2.53-0.547-5.17-2.859-6.252L7.229,1.566C6.684,1.755,6.391,2.355,6.576,2.909
							l1.126-0.408C8.145,2.34,8.636,2.575,8.796,3.025c0.158,0.45-0.074,0.948-0.518,1.109L7.116,4.555
							c0.203,0.544,0.801,0.822,1.34,0.621l1.226-0.457c0.087,0.5-0.19,1.006-0.677,1.183l-2.35,0.867
							c-0.99,0.43-1.693,1.407-1.742,2.557C4.911,9.367,4.908,9.409,4.908,9.452c0,0.026,0.003,0.052,0.003,0.077
							C4.907,9.518,4.903,9.51,4.903,9.51H1.237V8.076c0-0.4-0.488-0.749-0.799-0.93L0.19,7.015v3.513
							c0.014,0.989,0.807,1.787,1.785,1.787h4.136c0.366,0,0.723,0.044,1.063,0.127c-0.018-0.004-0.033-0.01-0.051-0.015
							c0.02,0.005,0.036,0.011,0.055,0.015C7.19,12.444,7.2,12.447,7.212,12.45c1.842,0.462,3.242,2.063,3.429,4.026
							c0.003,0.034,0.005,0.068,0.008,0.104c0.008,0.112,0.014,0.229,0.014,0.344c0,1.104-0.383,2.118-1.022,2.912
							c-0.047,0.06-0.095,0.115-0.145,0.172c-0.131,0.188-0.208,0.418-0.208,0.666c0,0.642,0.513,1.162,1.146,1.162
							c0.228,0,0.44-0.067,0.619-0.185l2.321-1.389c0.32,0.182,0.537,0.527,0.537,0.926c0,0.265-0.095,0.506-0.251,0.69
							l-0.963,1.062H11.52l0,0h-0.057c-0.564,0.016-1.018,0.482-1.018,1.06h2.093l0,0h1.264c0-1,0.8-1.812,1.787-1.812V19.1
							c-0.819-0.166-1.436-0.896-1.436-1.775c0-0.044,0.002-0.088,0.005-0.133c0.104,0.018,0.21,0.027,0.32,0.027
							c0.407,0,0.786-0.115,1.111-0.313c0.626-0.384,1.047-1.078,1.047-1.873V6.807c0-0.383,0.306-0.694,0.684-0.694
							c0.365,0,0.662,0.29,0.682,0.654c-0.47,0.326-0.778,0.874-0.778,1.495c0,1,0.799,1.811,1.786,1.811V6.807
							C19.01,6.686,18.997,6.567,18.973,6.453L18.973,6.453z"/>
					</g>
				</g>
			</g>
		</g>
	</g>
</g>
</svg>
